{"asset":{"generator":"glTF-Transform v3.10.0","version":"2.0","extras":{"author":"Lassi Kaukonen (https://sketchfab.com/thesidekick)","license":"CC-BY-4.0 (http://creativecommons.org/licenses/by/4.0/)","source":"https://sketchfab.com/3d-models/red-rose-74520e87c3ed46898668c83356dd9cfa","title":"Red rose"}},"accessors":[{"type":"VEC3","componentType":5126,"count":65532,"max":[0.7110790014266968,0.5618720054626465,2.5427539348602295],"min":[-0.8022580146789551,-0.9805830121040344,0.047308001667261124],"bufferView":0,"byteOffset":0},{"type":"VEC3","componentType":5126,"count":65532,"bufferView":0,"byteOffset":12},{"type":"VEC4","componentType":5126,"count":65532,"bufferView":0,"byteOffset":24},{"type":"VEC2","componentType":5126,"count":65532,"bufferView":0,"byteOffset":40},{"type":"VEC3","componentType":5126,"count":53811,"max":[0.589257001876831,0.5130800008773804,2.5427539348602295],"min":[-0.5336940288543701,-0.4439440071582794,0.567920982837677],"bufferView":1,"byteOffset":0},{"type":"VEC3","componentType":5126,"count":53811,"bufferView":1,"byteOffset":12},{"type":"VEC4","componentType":5126,"count":53811,"bufferView":1,"byteOffset":24},{"type":"VEC2","componentType":5126,"count":53811,"bufferView":1,"byteOffset":40},{"type":"SCALAR","componentType":5125,"count":362160,"bufferView":2,"byteOffset":0},{"type":"SCALAR","componentType":5125,"count":281820,"bufferView":2,"byteOffset":1448640}],"bufferViews":[{"buffer":0,"byteOffset":0,"byteLength":3145536,"byteStride":48,"target":34962},{"buffer":0,"byteOffset":3145536,"byteLength":2582928,"byteStride":48,"target":34962},{"buffer":0,"byteOffset":5728464,"byteLength":2575920,"target":34963}],"samplers":[{"magFilter":9729,"minFilter":9987,"wrapS":10497,"wrapT":10497}],"textures":[{"source":0,"sampler":0},{"source":1,"sampler":0},{"source":2,"sampler":0}],"images":[{"mimeType":"image/jpeg","uri":"textures/Red_rose_diffuse.jpeg"},{"mimeType":"image/png","uri":"textures/Red_rose_normal.png"},{"mimeType":"image/png","uri":"textures/Red_rose_occlusion.png"}],"buffers":[{"uri":"scene.bin","byteLength":8304384}],"materials":[{"name":"Red_rose","doubleSided":true,"pbrMetallicRoughness":{"metallicFactor":0,"baseColorTexture":{"index":0}},"normalTexture":{"index":1,"scale":0.7009640583481798},"occlusionTexture":{"index":2},"extensions":{"KHR_materials_ior":{"ior":1000},"KHR_materials_specular":{"specularColorFactor":[0.05643435221724299,0.05643435221724299,0.05643435221724299]}}}],"meshes":[{"name":"Object_0","primitives":[{"attributes":{"NORMAL":1,"POSITION":0,"TANGENT":2,"TEXCOORD_0":3},"mode":4,"material":0,"indices":8}]},{"name":"Object_1","primitives":[{"attributes":{"NORMAL":5,"POSITION":4,"TANGENT":6,"TEXCOORD_0":7},"mode":4,"material":0,"indices":9}]}],"nodes":[{"name":"Sketchfab_model","rotation":[-0.7071067811865475,0,0,0.7071067811865476],"children":[1]},{"name":"Red_rose_SF.obj.cleaner.materialmerger.gles","children":[2,3]},{"name":"Object_2","mesh":0},{"name":"Object_3","mesh":1}],"scenes":[{"name":"Sketchfab_Scene","nodes":[0]}],"scene":0,"extensionsUsed":["KHR_materials_ior","KHR_materials_specular"]}